<svg baseProfile="tiny" version="1.2" xmlns="http://www.w3.org/2000/svg" xmlns:ev="http://www.w3.org/2001/xml-events" xmlns:xlink="http://www.w3.org/1999/xlink" viewBox="220.5 140.5 179 162"><defs/><polyline fill="none" points="301,263 301,263 302,264 302,264 302,265 302,265 303,266 303,267 304,268 304,268 305,269 305,269 306,270 306,271 307,272 307,272 307,273 307,273 308,274 308,275 309,275 309,276 310,277 310,277 311,278 311,279 312,280 312,280 312,281 312,281 313,282 313,283 314,284 314,284 315,285 315,285 316,286 316,287 316,287 316,288 317,289 317,289 318,290 319,290 319,290 320,289 320,288 321,288 321,287 321,287 321,286 322,286 322,285 322,285 322,284 323,284 323,283 323,283 323,282 324,282 324,281 324,281 324,280 325,279 325,279 326,278 326,278 326,277 326,277 327,276 327,276 327,275 327,275 328,274 328,274 328,273 328,273 329,272 329,272 329,271 329,271 330,270 330,269 331,268 331,268 332,267 332,266 332,266 332,265 333,265 333,264 333,264 333,263" stroke="rgb(100%,100%,100%)" stroke-width="1"/><polyline fill="none" points="268,221 268,221 268,222 265,225 265,225 261,229 261,230 257,233 257,234 255,236 255,237 251,240 251,241 248,244 248,244 245,248 245,248 241,252 241,252 239,255 239,255 237,257 238,257 239,256 239,255 241,253 241,252 245,249 245,248 248,245 248,244 251,241 251,241 255,237 255,237 257,234 257,234 261,230 261,230 265,226 265,225 268,222 268,222 269,221 270,222 270,223 271,223 271,224 272,225 272,225 272,226 272,226 273,227 273,228 274,229 274,229 275,230 275,231 276,231 276,232 277,233 277,233 278,234 278,235 278,235 278,236 279,237 279,237 280,238 280,238 281,239 281,240 282,241 282,241 282,242 282,242 283,243 283,244 284,245 284,245 285,246 285,246 286,247 286,248 287,249 287,249 287,250 287,250 288,251 288,252 289,253 289,253 290,254 290,254 290,255 290,255 291,256 291,257 292,257 291,258 237,258 292,258 292,257 291,256 291,256 290,255 290,254 290,254 290,253 289,253 289,252 288,251 288,251 287,250 287,249 287,249 287,248 286,247 286,247 285,246 285,245 284,245 284,244 283,243 283,243 282,242 282,241 282,241 282,240 281,239 281,239 280,238 280,237 279,237 279,236 278,235 278,235 278,234 278,234 277,233 277,232 276,231 276,231 275,230 275,230 274,229 274,228 273,227 273,227 272,226 272,225 272,225 272,224 271,223 271,223 270,222 270,222 269,221" stroke="rgb(100%,100%,100%)" stroke-width="1"/><polyline fill="none" points="360,218 360,219 360,219 360,220 359,220 359,221 359,221 359,222 358,223 358,223 357,224 357,224 357,225 357,225 356,226 356,226 356,227 356,227 355,228 355,228 355,229 355,229 354,230 354,230 354,231 354,231 353,232 353,233 352,233 352,234 352,234 352,235 351,236 351,237 350,237 350,238 350,238 350,239 349,239 349,240 349,240 349,241 348,242 348,242 347,243 347,243 347,244 347,245 346,246 346,246 345,247 345,247 345,248 345,248 344,249 344,249 344,250 344,250 343,251 343,251 343,252 343,252 342,253 342,253 342,254 342,254 341,255 341,256 340,256 340,257 340,257 340,258 339,258 339,259 388,259 388,258 387,257 387,257 386,255 386,255 385,254 385,254 384,253 384,252 383,251 383,251 382,249 382,249 381,248 381,247 380,246 380,246 379,245 379,244 378,243 378,243 377,242 377,241 376,240 376,240 374,238 374,238 373,237 373,236 372,235 372,235 371,234 371,233 370,232 370,232 369,231 369,230 368,229 368,229 367,228 367,227 366,226 366,226 365,224 365,224 364,223 364,223 363,221 363,221 362,220 362,219 361,219 361,218 361,219" stroke="rgb(100%,100%,100%)" stroke-width="1"/><polyline fill="none" points="268,218 268,219 268,219 264,223 264,223 261,226 261,227 258,230 258,231 254,234 254,235 251,238 251,238 248,242 248,242 245,245 245,245 242,249 242,249 238,253 238,253 235,256 235,257 234,258 234,258 235,257 235,257 238,254 238,253 242,250 242,249 245,246 245,245 248,243 248,242 251,239 251,238 254,235 254,235 258,231 258,231 261,227 261,227 264,224 264,223 268,220 268,219 269,218 269,218 270,219 270,220 271,220 271,221 272,222 272,222 273,223 273,224 273,224 273,225 274,226 274,226 275,227 275,228 276,228 276,229 277,230 277,230 278,231 278,232 278,232 278,233 279,234 279,234 280,235 280,235 281,236 281,237 282,238 282,238 282,239 282,239 283,240 283,241 284,242 284,242 285,243 285,244 286,244 286,245 287,246 287,246 287,247 287,247 288,248 288,249 289,250 289,250 290,251 290,251 291,252 291,253 292,254 292,254 292,255 292,255 293,256 293,257 294,258 294,258 295,259 294,259 234,259 295,259 295,258 294,258 294,257 293,256 293,256 292,255 292,254 292,254 292,253 291,252 291,252 290,251 290,250 289,250 289,249 288,248 288,248 287,247 287,246 287,246 287,245 286,244 286,244 285,243 285,243 284,242 284,241 283,240 283,240 282,239 282,238 282,238 282,237 281,236 281,236 280,235 280,234 279,234 279,233 278,232 278,232 278,231 278,231 277,230 277,229 276,228 276,228 275,227 275,227 274,226 274,225 273,224 273,224 273,223 273,223 272,222 272,221 271,220 271,220 270,219 270,219 270,218" stroke="rgb(100%,100%,100%)" stroke-width="1"/><polyline fill="none" points="360,212 360,213 359,213 359,214 359,214 359,215 358,215 358,216 357,217 357,217 357,218 357,218 356,219 356,219 356,220 356,220 355,221 355,221 355,222 355,222 354,223 354,223 354,224 354,224 353,225 353,225 353,226 353,226 352,227 352,228 351,228 351,229 351,229 351,230 350,230 350,231 350,231 350,232 349,232 349,233 349,233 349,234 348,234 348,235 348,235 348,236 347,236 347,237 347,237 347,238 346,239 346,239 345,240 345,240 345,241 345,241 344,242 344,242 344,243 344,243 343,244 343,244 343,245 343,245 342,246 342,246 342,247 342,247 341,248 341,249 340,249 340,250 340,250 340,251 339,251 339,252 339,252 339,253 338,253 338,254 338,254 338,255 337,255 337,256 337,256 337,257 336,258 336,258 335,259 299,259 298,258 298,258 297,257 297,256 297,256 297,255 296,254 296,254 295,253 295,253 294,252 294,251 294,251 294,250 293,249 293,249 292,248 292,247 291,246 291,246 290,245 290,244 289,244 289,243 289,243 289,242 288,241 288,241 287,240 287,239 286,239 286,238 285,237 285,237 284,236 284,235 284,235 284,234 283,233 283,233 282,232 282,232 281,231 281,230 280,229 280,229 279,228 279,227 278,226 278,226 278,225 278,225 277,224 277,224 276,223 276,222 275,221 275,221 275,220 275,220 274,219 274,218 273,217 273,217 272,216 272,215 271,215 271,214 270,213 270,213 269,213 268,214 268,214 265,217 265,218 261,221 261,222 258,225 258,225 255,228 255,229 251,233 251,233 249,236 249,236 245,240 245,240 242,244 242,244 239,247 239,248 235,251 235,252 233,254 233,255 229,258 229,259 226,262 226,263 297,263 298,264 298,265 299,265 299,266 300,267 300,267 301,268 301,269 301,269 301,270 302,271 302,271 303,272 303,273 304,273 304,274 305,275 305,275 306,276 306,277 306,277 306,278 307,279 307,279 308,280 308,281 309,281 309,282 310,283 310,283 311,284 311,285 311,285 311,286 312,287 312,287 313,288 313,289 314,289 314,290 315,291 315,291 316,292 316,293 316,293 316,294 317,295 317,295 318,296 318,296 318,297 318,296 318,296 318,295 317,294 317,294 316,293 316,293 316,292 316,292 315,291 315,290 314,289 314,289 313,288 313,288 312,287 312,286 311,285 311,285 311,284 311,284 310,283 310,282 309,281 309,281 308,280 308,280 307,279 307,278 306,277 306,277 306,276 306,276 305,275 305,274 304,273 304,273 303,272 303,272 302,271 302,270 301,269 301,269 301,268 301,268 300,267 300,266 299,265 299,265 298,264 298,264 297,263 227,263 226,262 229,259 229,259 233,255 233,255 235,252 235,252 239,248 239,248 242,245 242,244 245,241 245,240 249,237 249,236 251,234 251,233 255,229 255,229 258,226 258,225 261,222 261,222 265,218 265,218 268,215 268,214 269,213 270,213 270,213 270,214 271,215 271,215 272,216 272,216 273,217 273,218 274,219 274,219 275,220 275,221 275,221 275,222 276,223 276,223 277,224 277,225 278,225 278,226 278,226 278,227 279,228 279,228 280,229 280,230 281,231 281,231 282,232 282,233 283,233 283,234 284,235 284,235 284,236 284,236 285,237 285,238 286,239 286,239 287,240 287,240 288,241 288,242 289,243 289,243 289,244 289,244 290,245 290,245 291,246 291,247 292,248 292,248 293,249 293,250 294,251 294,251 294,252 294,252 295,253 295,254 296,254 296,255 297,256 297,256 297,257 297,257 298,258 298,259 299,259 335,259 336,259 336,258 337,257 337,257 337,256 337,256 338,255 338,255 338,254 338,254 339,253 339,253 339,252 339,252 340,251 340,251 340,250 340,250 341,249 341,249 342,248 342,247 342,247 342,246 343,246 343,245 344,244 344,243 344,243 344,242 345,242 345,241 345,241 345,240 346,240 346,239 347,238 347,238 347,237 347,237 348,236 348,236 348,235 348,235 349,234 349,234 349,233 349,233 350,232 350,232 350,231 350,231 351,230 351,230 351,229 351,229 352,228 352,228 353,227 353,226 353,226 353,225 354,225 354,224 354,224 354,223 355,223 355,222 355,222 355,221 356,221 356,220 356,220 356,219 357,219 357,218 357,218 357,217 358,216 358,216 359,215 359,215 359,214 359,214 360,213 360,213 360,212 362,214 362,214 362,215 362,215 363,216 363,217 364,218 364,218 366,220 366,220 367,221 367,222 368,223 368,223 369,224 369,225 370,226 370,226 371,227 371,228 372,229 372,229 373,231 373,231 374,232 374,233 375,234 375,234 376,235 376,236 377,237 377,237 378,238 378,239 379,240 379,240 381,242 381,242 382,243 382,244 383,245 383,245 383,246 383,246 385,248 385,248 386,249 386,250 387,251 387,251 388,252 388,253 389,254 389,254 390,255 390,256 391,257 391,257 392,259 392,259 393,260 393,261 394,262 394,262 394,263 337,263 336,264 336,264 336,265 336,265 335,266 335,266 335,267 335,267 334,268 334,268 334,269 334,269 333,270 333,270 333,271 333,271 332,272 332,272 332,273 332,273 331,274 331,274 331,275 331,275 330,276 330,276 329,277 329,278 329,278 329,279 328,279 328,280 328,280 328,281 327,281 327,282 327,282 327,283 326,284 326,285 325,285 325,286 324,287 324,287 324,288 324,288 323,289 323,289 323,290 323,290 322,291 322,291 322,292 322,292 321,293 321,294 320,295 320,295 319,296 319,297 319,297 320,296 320,295 321,295 321,294 322,293 322,292 322,292 322,291 323,291 323,290 323,290 323,289 324,289 324,288 324,288 324,287 325,286 325,286 326,285 326,284 327,283 327,283 327,282 327,282 328,281 328,281 328,280 328,280 329,279 329,279 329,278 329,278 330,277 330,276 331,276 331,275 331,275 331,274 332,274 332,273 332,273 332,272 333,272 333,271 333,271 333,270 334,270 334,269 334,269 334,268 335,268 335,267 335,267 335,266 336,266 336,265 336,265 336,264 338,263 394,263 394,261 393,260 393,260 392,259 392,258 391,257 391,256 390,255 390,255 389,254 389,253 388,252 388,252 387,251 387,250 386,249 386,249 385,248 385,247 383,246 383,245 383,245 383,244 382,243 382,243 381,242 381,241 379,240 379,239 378,238 378,238 377,237 377,236 376,235 376,235 375,234 375,233 374,232 374,232 373,231 373,230 372,229 372,228 371,227 371,227 370,226 370,225 369,224 369,224 368,223 368,222 367,221 367,221 366,220 366,219 364,218 364,217 363,216 363,216 362,215 362,214 362,214 362,213 361,212" stroke="rgb(100%,100%,100%)" stroke-width="1"/><polyline fill="none" points="360,209 359,210 359,210 359,211 359,211 358,212 358,213 357,213 357,214 357,214 357,215 356,216 356,217 355,217 355,218 355,218 355,219 354,219 354,220 354,220 354,221 353,221 353,222 352,223 352,223 352,224 352,225 351,226 351,226 350,227 350,227 350,228 350,228 349,229 349,229 349,230 349,230 348,231 348,231 347,232 347,233 347,233 347,234 346,235 346,236 345,236 345,237 345,237 345,238 344,238 344,239 344,239 344,240 343,240 343,241 343,241 343,242 342,242 342,243 341,244 341,244 341,245 341,245 340,246 340,246 340,247 340,247 339,248 339,248 339,249 339,249 338,250 338,250 338,251 338,251 337,252 337,252 336,253 336,254 336,254 336,255 335,255 335,256 335,256 335,257 334,258 300,258 299,257 299,256 298,255 298,255 298,254 298,254 297,253 297,252 296,252 296,251 295,250 295,250 294,249 294,248 294,248 294,247 293,246 293,246 292,245 292,244 291,244 291,243 290,242 290,242 289,241 289,240 289,240 289,239 288,238 288,238 287,237 287,236 286,236 286,235 285,234 285,234 285,233 285,233 284,232 284,231 283,230 283,230 282,229 282,229 281,228 281,227 280,226 280,226 279,225 279,224 279,224 279,223 278,222 278,222 277,221 277,221 276,220 276,219 275,218 275,218 275,217 275,217 274,216 274,215 273,214 273,214 272,213 272,213 271,212 271,211 270,210 270,210 269,210 268,211 268,212 265,214 265,215 262,218 262,219 258,222 258,223 255,226 255,226 252,230 252,230 248,234 248,234 246,237 246,237 242,241 242,242 239,244 239,245 236,248 236,249 232,253 232,253 229,256 229,256 226,260 226,260 223,263 223,264 296,264 297,266 297,266 298,267 298,267 299,268 299,269 300,270 300,270 301,271 301,272 301,272 301,273 302,274 302,274 303,275 303,275 304,276 304,277 305,278 305,278 306,279 306,280 306,280 306,281 307,282 307,282 308,283 308,284 309,284 309,285 309,285 309,286 310,287 310,287 311,288 311,289 312,290 312,290 313,291 313,291 314,292 314,293 315,294 315,294 315,295 315,295 316,296 316,297 317,297 317,298 318,299 318,299 319,300 319,300 320,299 320,299 321,298 321,298 321,297 321,297 322,296 322,296 322,295 322,295 323,294 323,294 323,293 323,293 324,292 324,292 324,291 324,291 325,290 325,290 325,289 325,289 326,288 326,287 327,287 327,286 327,286 327,285 328,285 328,284 328,284 328,283 329,283 329,282 329,282 329,281 330,281 330,280 330,280 330,279 331,279 331,278 332,277 332,277 332,276 332,276 333,275 333,275 333,274 333,274 334,273 334,273 334,272 334,272 335,271 335,271 335,270 335,270 336,269 336,269 337,268 337,267 337,267 337,266 338,266 338,265 339,264 397,264 397,263 396,261 396,261 395,260 395,260 394,258 394,258 393,257 393,256 392,255 392,255 391,254 391,253 390,252 390,252 389,251 389,250 388,249 388,249 386,247 386,247 385,246 385,245 384,244 384,244 383,243 383,242 382,241 382,241 381,240 381,239 380,238 380,238 379,236 379,236 378,235 378,235 377,234 377,233 376,232 376,232 375,230 375,230 374,229 374,228 373,227 373,227 372,226 372,225 371,224 371,224 370,223 370,222 369,221 369,221 367,219 367,219 366,218 366,217 365,216 365,216 364,215 364,214 363,213 363,213 362,212 362,211 361,210 361,210 361,209 361,210 361,210 361,211 362,212 362,212 363,213 363,214 364,215 364,215 365,216 365,217 366,218 366,218 367,219 367,220 369,221 369,222 370,223 370,223 371,224 371,225 372,226 372,226 373,227 373,228 374,229 374,229 375,230 375,231 376,232 376,233 377,234 377,234 378,235 378,236 379,236 379,237 380,238 380,239 381,240 381,240 382,241 382,242 383,243 383,243 384,244 384,245 385,246 385,246 386,247 386,248 388,249 388,250 389,251 389,251 390,252 390,253 391,254 391,254 392,255 392,256 393,257 393,257 394,258 394,259 395,260 395,261 396,262 396,262 397,263 397,264 397,264 338,264 338,265 338,265 337,266 337,266 337,267 337,267 336,268 336,269 335,269 335,270 335,270 335,271 334,271 334,272 334,272 334,273 333,273 333,274 333,274 333,275 332,275 332,276 332,276 332,277 331,278 331,278 330,279 330,279 330,280 330,280 329,281 329,281 329,282 329,282 328,283 328,283 328,284 328,284 327,285 327,285 327,286 327,286 326,287 326,287 326,288 326,288 325,289 325,290 324,290 324,291 324,291 324,292 323,292 323,293 323,293 323,294 322,294 322,295 322,295 322,296 321,296 321,297 321,297 321,298 320,298 320,299 319,300 319,300 318,299 318,298 317,297 317,297 316,296 316,296 315,295 315,294 315,294 315,293 314,292 314,292 313,291 313,290 312,290 312,289 311,288 311,288 310,287 310,286 309,285 309,285 309,284 309,284 308,283 308,283 307,282 307,281 306,280 306,280 306,279 306,279 305,278 305,277 304,276 304,276 303,275 303,274 302,274 302,273 301,272 301,272 301,271 301,271 300,270 300,269 299,268 299,268 298,267 298,266 297,266 297,265 296,264 223,264 223,264 226,261 226,260 229,257 229,256 232,254 232,253 236,249 236,249 239,245 239,245 242,242 242,242 246,238 246,237 248,235 248,234 252,231 252,230 255,227 255,226 258,223 258,223 262,219 262,219 265,215 265,215 268,212 268,212 270,210 270,210 270,211 271,212 271,212 272,213 272,214 273,214 273,215 274,216 274,216 275,217 275,218 275,218 275,219 276,220 276,220 277,221 277,222 278,222 278,223 279,224 279,224 279,225 279,225 280,226 280,227 281,228 281,228 282,229 282,230 283,230 283,231 284,232 284,232 285,233 285,234 285,234 285,235 286,236 286,236 287,237 287,237 288,238 288,239 289,240 289,240 289,241 289,241 290,242 290,243 291,244 291,244 292,245 292,245 293,246 293,247 294,248 294,248 294,249 294,249 295,250 295,251 296,252 296,252 297,253 297,253 298,254 298,255 298,255 298,256 299,257 299,257 300,258 334,258 335,257 335,257 335,256 335,256 336,255 336,255 336,254 336,254 337,253 337,252 338,252 338,251 338,251 338,250 339,250 339,249 339,249 339,248 340,248 340,247 340,247 340,246 341,246 341,245 341,245 341,244 342,243 342,243 343,242 343,242 343,241 343,241 344,240 344,240 344,239 344,239 345,238 345,238 345,237 345,237 346,236 346,236 347,235 347,234 347,233 347,233 348,232 348,231 349,231 349,230 349,230 349,229 350,229 350,228 350,228 350,227 351,227 351,226 352,225 352,224 352,224 352,223 353,222 353,222 354,221 354,221 354,220 354,220 355,219 355,219 355,218 355,218 356,217 356,217 356,216 356,216 357,215 357,215 357,214 357,214 358,213 358,213 359,212 359,211 359,211 359,210 360,210" stroke="rgb(100%,100%,100%)" stroke-width="1"/><polyline fill="none" points="312,209 312,209 311,209 310,210 310,210 309,210 309,210 308,211 307,211 306,212 306,213 305,214 305,215 304,216 304,217 304,217 304,223 304,224 304,225 305,226 305,226 306,228 306,228 308,230 308,230 309,230 309,230 310,231 310,231 311,231 312,231 312,232 314,232 315,232 316,232 316,232 319,232 319,231 320,231 321,231 321,231 322,230 323,230 325,227 325,227 326,226 326,225 326,225 326,224 327,224 327,222 327,222 327,219 327,218 327,217 326,216 326,216 326,215 326,214 325,213 325,213 323,211 322,211 321,210 321,210 320,209 319,209 318,209" stroke="rgb(100%,100%,100%)" stroke-width="1"/><polyline fill="none" points="248,143 247,143 247,143 247,149 263,149 265,151 265,152 266,152 266,153 266,153 266,154 267,155 267,155 268,156 268,157 270,158 270,159 272,161 272,161 275,164 262,177 262,178 266,182 267,182 280,169 281,169 282,171 283,171 284,172 284,172 285,172 285,172 286,173 287,173 287,174 288,174 288,174 289,174 289,175 290,175 290,175 291,175 291,176 292,176 292,176 293,176 293,177 294,177 295,177 296,177 296,178 297,178 297,178 297,180 297,180 297,182 296,183 296,185 296,185 296,187 295,187 295,189 295,189 295,191 294,192 294,194 294,194 294,197 295,197 296,197 297,197 298,198 300,198 300,197 300,196 300,195 301,194 301,193 301,192 301,190 302,190 302,188 302,187 302,186 303,185 303,184 303,183 303,181 304,181 304,180 304,180 305,180 306,180 308,180 309,181 322,181 323,180 325,180 326,180 327,180 328,181 328,183 329,183 329,185 329,185 329,187 330,187 330,189 330,190 330,191 331,192 331,194 331,194 331,196 332,197 332,198 334,198 334,197 336,197 337,197 338,197 338,194 337,193 337,191 337,191 337,189 336,189 336,187 336,187 336,185 335,184 335,182 335,182 335,180 334,179 334,178 335,177 336,177 337,177 338,177 338,176 339,176 339,176 340,176 340,175 341,175 341,175 342,175 342,174 343,174 343,174 344,174 344,173 345,173 346,172 346,172 347,172 347,172 349,170 349,170 350,169 351,169 352,168 353,168 366,181 367,181 371,178 371,177 357,163 359,161 359,161 361,159 361,158 363,157 363,156 364,155 364,155 364,154 364,154 365,153 365,152 366,152 366,151 368,149 385,149 385,149 385,148 385,144 385,144 385,143 384,143 364,143 363,143 363,143 363,144 362,145 362,145 361,146 361,146 361,147 361,147 360,148 360,149 359,149 359,150 358,151 358,151 357,152 357,153 356,154 356,155 353,157 353,158 350,161 350,161 347,163 347,163 345,165 345,165 343,166 343,166 342,167 341,167 341,168 340,168 340,168 339,168 338,169 337,169 336,170 335,170 335,171 334,171 334,171 333,171 332,172 331,172 331,172 330,172 329,173 328,173 327,173 326,173 325,174 323,174 322,174 309,174 308,174 306,174 305,173 304,173 303,173 302,173 301,172 300,172 300,172 299,172 298,171 297,171 297,171 296,171 296,170 295,170 295,170 294,170 293,169 293,169 292,168 291,168 291,168 290,168 290,167 289,167 288,166 288,166 287,165 286,165 284,163 284,163 281,161 281,161 277,157 277,157 275,155 275,154 274,153 274,152 273,151 273,151 272,150 272,149 271,148 271,147 270,146 270,146 269,145 269,145 269,144 269,144 268,143 268,143 267,143" stroke="rgb(100%,100%,100%)" stroke-width="1"/></svg>